# xmcd CD database file
#
# Track frame offsets:
#	187
#	13947
#	30167
#	48867
#	64457
#	85872
#	106082
#	119180
#	134995
#	147482
#
# Disc length: 2235 seconds
#
# Revision: 0
# Processed by: cddbd v1.5.2PL0 Copyright (c) Steve Scherf et al.
# Submitted via: CDex 1.70beta3
#
DISCID=9308b90a
DTITLE=The Herman Foster Trio - Ready And Willing
DYEAR=1963
DGENRE=Jazz
TTITLE0=Ready And Willing
TTITLE1=My Ship
TTITLE2=The Night We Called It A Day
TTITLE3=Blue-Ese
TTITLE4=Namely You
TTITLE5=Our Day Will Come
TTITLE6=You've Changed
TTITLE7=Someday My Prince Will Come
TTITLE8=Popcorn
TTITLE9=How About You
EXTD=YEAR: 1963
EXTT0=
EXTT1=
EXTT2=
EXTT3=
EXTT4=
EXTT5=
EXTT6=
EXTT7=
EXTT8=
EXTT9=
PLAYORDER=
